<?xml version="1.0" standalone="no"?>
<!DOCTYPE svg PUBLIC "-//W3C//DTD SVG 20010904//EN"
 "http://www.w3.org/TR/2001/REC-SVG-20010904/DTD/svg10.dtd">
<svg version="1.0" xmlns="http://www.w3.org/2000/svg"
 width="64.000000pt" height="64.000000pt" viewBox="0 0 64.000000 64.000000"
 preserveAspectRatio="xMidYMid meet">

<g transform="translate(0.000000,64.000000) scale(0.100000,-0.100000)"
fill="#000000" stroke="none">
<path d="M265 385 c-50 -49 -15 -135 55 -135 41 0 80 39 80 80 0 19 -9 40 -25
55 -15 16 -36 25 -55 25 -19 0 -40 -9 -55 -25z m105 -5 c11 -11 20 -33 20 -50
0 -61 -77 -93 -120 -50 -43 43 -11 120 50 120 17 0 39 -9 50 -20z"/>
<path d="M276 374 c-20 -20 -20 -68 0 -88 20 -20 68 -20 88 0 21 20 23 82 2
65 -19 -16 -41 10 -24 27 9 9 5 12 -19 12 -17 0 -39 -7 -47 -16z m45 -21 c12
-14 12 -16 0 -9 -9 6 -12 5 -9 -5 3 -8 15 -13 27 -11 20 3 21 1 11 -17 -12
-24 -23 -26 -51 -11 -21 12 -25 40 -7 58 15 15 13 15 29 -5z"/>
</g>
</svg>
