<?xml version="1.0" standalone="no"?>
<!DOCTYPE svg PUBLIC "-//W3C//DTD SVG 20010904//EN"
 "http://www.w3.org/TR/2001/REC-SVG-20010904/DTD/svg10.dtd">
<svg version="1.0" xmlns="http://www.w3.org/2000/svg"
 width="64.000000pt" height="64.000000pt" viewBox="0 0 64.000000 64.000000"
 preserveAspectRatio="xMidYMid meet">

<g transform="translate(0.000000,64.000000) scale(0.100000,-0.100000)"
fill="#000000" stroke="none">
<path d="M280 365 l-34 -35 37 -38 37 -37 37 37 37 38 -34 35 c-19 19 -37 35
-40 35 -3 0 -21 -16 -40 -35z m75 -5 c23 -24 26 -32 15 -45 -7 -8 -19 -15 -26
-15 -8 0 -14 -8 -14 -17 0 -13 -4 -11 -13 7 -7 13 -24 30 -37 37 -18 9 -20 13
-7 13 9 0 17 6 17 13 0 13 19 37 30 37 4 0 19 -13 35 -30z"/>
</g>
</svg>
