<!DOCTYPE svg PUBLIC "-//W3C//DTD SVG 20010904//EN" "http://www.w3.org/TR/2001/REC-SVG-20010904/DTD/svg10.dtd">
<svg version="1.0" xmlns="http://www.w3.org/2000/svg" width="1024px" height="1024px" viewBox="0 0 10240 10240" preserveAspectRatio="xMidYMid meet">
<g id="layer101" fill="#007d00" stroke="none">
 <path d="M4825 10164 c-350 -35 -618 -91 -903 -189 -521 -178 -985 -468 -1383 -865 -290 -289 -500 -576 -679 -931 -190 -375 -294 -704 -361 -1149 -30 -193 -37 -662 -15 -878 75 -703 342 -1356 782 -1907 105 -132 354 -388 479 -493 353 -297 739 -518 1164 -667 94 -33 94 -33 92 -136 -1 -57 -6 -110 -10 -118 -5 -8 -53 -27 -107 -43 -296 -88 -495 -201 -582 -333 -29 -44 -29 -44 -37 -484 -7 -440 -7 -440 21 -491 90 -165 380 -318 769 -405 66 -15 122 -28 124 -30 2 -3 -8 -156 -22 -342 -25 -338 -25 -338 -6 -380 47 -98 244 -181 549 -229 166 -27 654 -27 820 0 305 48 502 131 549 229 19 42 19 42 -7 379 -14 186 -24 339 -22 342 3 2 59 16 125 31 389 87 679 240 769 405 28 51 28 51 21 491 -8 440 -8 440 -37 484 -86 130 -284 244 -574 331 -91 27 -91 27 -98 108 -13 173 -20 159 97 201 421 154 788 367 1132 657 125 105 374 361 479 493 440 551 707 1203 782 1907 22 214 15 684 -15 878 -67 443 -171 773 -361 1149 -179 355 -389 642 -679 931 -578 576 -1276 919 -2111 1036 -110 15 -643 28 -745 18z"/>
 </g>
<g id="layer102" fill="#008f11" stroke="none">
 <path d="M4825 10164 c-350 -35 -618 -91 -903 -189 -521 -178 -985 -468 -1383 -865 -290 -289 -500 -576 -679 -931 -190 -375 -294 -704 -361 -1149 -30 -193 -37 -662 -15 -878 75 -703 342 -1356 782 -1907 105 -132 354 -388 479 -493 358 -302 750 -525 1180 -672 110 -38 110 -38 113 -136 2 -55 -2 -102 -7 -107 -6 -6 -62 -25 -126 -43 -310 -89 -513 -204 -603 -339 -29 -44 -29 -44 -37 -484 -7 -440 -7 -440 21 -491 69 -126 260 -250 516 -335 127 -41 374 -102 383 -94 2 3 14 156 27 342 23 338 23 338 70 367 93 57 302 115 503 139 134 16 371 25 447 17 67 -8 67 -8 62 -39 -10 -59 -113 -251 -193 -358 -102 -138 -234 -291 -491 -568 -209 -227 -286 -316 -330 -381 -13 -19 -47 -56 -76 -83 -70 -63 -83 -102 -54 -161 49 -102 242 -183 550 -232 166 -27 654 -27 820 0 308 49 501 130 550 232 29 59 16 98 -52 159 -50 45 -50 45 -98 407 -45 334 -89 693 -106 861 -6 68 -6 68 46 47 30 -12 67 -31 84 -42 17 -12 32 -22 34 -23 1 -1 14 -154 27 -340 14 -186 27 -340 30 -343 9 -9 251 50 383 93 256 85 447 209 516 335 28 51 28 51 21 491 -8 440 -8 440 -37 484 -89 134 -288 247 -593 336 -60 17 -111 32 -111 33 -1 0 -5 51 -9 112 -7 111 -7 111 62 133 418 137 847 380 1208 683 125 105 374 361 479 493 440 551 707 1203 782 1907 22 214 15 684 -15 878 -52 343 -132 638 -248 910 -192 451 -446 825 -792 1170 -578 576 -1276 919 -2111 1036 -110 15 -643 28 -745 18z m640 -209 c1036 -110 1952 -666 2521 -1530 353 -537 535 -1104 568 -1769 4 -89 4 -89 -14 -49 -133 297 -992 550 -2220 652 -440 37 -665 45 -1215 45 -501 0 -743 -8 -1090 -35 -342 -26 -866 -92 -1114 -140 -57 -10 -106 -18 -108 -16 -20 21 -56 412 -46 501 4 32 2 47 -4 43 -30 -19 -165 -399 -193 -543 -12 -62 -12 -62 -129 -94 -395 -111 -676 -267 -741 -413 -18 -40 -18 -40 -14 49 21 417 100 792 244 1154 244 610 678 1159 1216 1535 486 341 1030 545 1617 609 170 19 549 19 722 1z m15 -6509 c189 -33 341 -99 398 -174 26 -34 27 -41 34 -211 4 -96 5 -177 3 -180 -3 -2 -36 1 -75 8 -79 14 -76 -3 -43 209 16 103 16 103 -8 128 -58 63 -235 122 -422 143 -124 14 -390 14 -514 0 -187 -21 -360 -78 -418 -139 -25 -26 -25 -29 -16 -96 5 -38 12 -106 16 -151 5 -81 5 -81 -45 -92 -98 -21 -91 -34 -84 157 5 129 10 175 23 202 49 98 242 177 511 210 118 14 529 5 640 -14z"/>
 </g>
<g id="layer103" fill="#1ca349" stroke="none">
 <path d="M4825 10164 c-350 -35 -618 -91 -903 -189 -521 -178 -985 -468 -1383 -865 -290 -289 -500 -576 -679 -931 -190 -375 -294 -704 -361 -1149 -30 -193 -37 -662 -15 -878 75 -703 342 -1356 782 -1907 105 -132 354 -388 479 -493 390 -328 835 -572 1294 -708 10 -3 12 -15 7 -42 -3 -20 -6 -68 -6 -105 0 -46 -4 -69 -12 -71 -409 -107 -624 -218 -726 -371 -29 -44 -29 -44 -37 -484 -7 -440 -7 -440 21 -491 69 -127 260 -251 516 -334 153 -51 367 -101 378 -89 7 8 17 132 40 507 6 92 15 165 22 174 34 40 215 107 385 141 270 54 636 55 945 1 175 -30 377 -103 403 -145 7 -11 16 -67 19 -125 14 -228 38 -555 42 -559 8 -8 257 53 382 94 256 85 447 209 516 335 28 51 28 51 21 491 -8 440 -8 440 -37 484 -61 92 -186 182 -347 250 -75 32 -269 95 -332 109 -23 5 -27 12 -33 58 -10 90 -7 178 7 182 105 26 354 126 524 211 368 183 678 410 979 716 180 184 290 320 432 534 329 494 524 1037 588 1637 22 214 15 684 -15 878 -52 343 -132 638 -248 910 -192 451 -446 825 -792 1170 -578 576 -1276 919 -2111 1036 -110 15 -643 28 -745 18z m480 -194 c497 -31 924 -145 1350 -360 361 -182 655 -397 929 -680 593 -612 928 -1388 971 -2250 6 -125 6 -125 -18 -73 -44 90 -146 173 -304 249 -485 230 -1322 381 -2403 433 -733 36 -1506 16 -2155 -55 -708 -77 -1169 -170 -1520 -307 -270 -104 -415 -203 -472 -320 -24 -52 -24 -52 -18 73 43 862 378 1638 971 2250 414 427 937 742 1509 910 374 109 774 154 1160 130z m132 -6515 c240 -36 410 -112 458 -205 21 -41 34 -470 15 -470 -11 0 -10 -3 2 -12 12 -11 17 -60 27 -263 6 -137 16 -342 22 -454 5 -112 8 -205 6 -207 -2 -2 -31 5 -64 17 -60 20 -60 20 -67 87 -3 37 -6 92 -6 123 0 51 -2 57 -24 63 -32 8 -35 33 -43 373 -6 281 -6 281 23 285 27 3 29 7 32 48 3 46 3 46 -55 58 -32 6 -118 16 -191 23 -183 16 -863 6 -1032 -15 -69 -9 -131 -16 -137 -16 -9 0 -13 -17 -13 -50 0 -50 0 -50 33 -50 17 0 100 7 182 15 177 18 626 31 706 21 57 -7 57 -7 36 -69 -17 -53 -21 -94 -24 -287 -2 -124 -6 -239 -8 -256 -5 -31 -5 -31 -323 -37 -303 -6 -400 -12 -558 -38 -72 -11 -72 -11 -79 -135 -4 -73 -12 -127 -18 -132 -7 -4 -31 -15 -54 -24 -42 -16 -42 -16 -37 10 2 15 9 126 14 247 25 557 33 665 49 665 13 0 14 2 2 9 -20 13 -8 428 13 470 20 38 76 86 136 116 98 49 304 95 490 109 102 7 382 -4 487 -19z"/>
 <path d="M4930 679 c-416 -24 -721 -128 -784 -267 -18 -40 -18 -41 3 -85 50 -103 242 -184 551 -233 166 -27 654 -27 820 0 309 49 501 130 551 233 21 44 21 45 3 85 -65 143 -362 242 -809 268 -94 5 -177 9 -185 8 -8 0 -76 -4 -150 -9z m528 -79 c70 -12 98 -30 47 -30 -70 0 -447 -150 -617 -246 -119 -67 -171 -111 -165 -140 5 -27 8 -27 -123 8 -150 40 -270 120 -270 181 0 100 186 190 480 232 115 17 538 13 648 -5z"/>
 </g>
<g id="layer104" fill="#58b369" stroke="none">
 <path d="M4825 10163 c-881 -74 -1667 -436 -2286 -1053 -290 -289 -500 -576 -679 -931 -190 -375 -294 -704 -361 -1149 -30 -193 -37 -662 -15 -878 75 -703 342 -1356 782 -1907 105 -132 354 -388 479 -493 339 -286 711 -502 1118 -651 164 -61 150 -66 142 54 -5 72 -4 105 4 105 24 0 31 -47 34 -217 2 -179 -13 -309 -37 -325 -8 -5 -7 -8 2 -8 18 0 15 -37 -13 -174 -29 -146 -68 -274 -125 -419 -38 -98 -46 -110 -76 -123 -18 -8 -35 -14 -38 -14 -2 0 20 55 49 122 29 68 69 173 88 233 47 145 117 468 105 480 -7 8 -200 -51 -313 -96 -179 -69 -317 -165 -383 -264 -29 -44 -29 -44 -37 -484 -7 -440 -7 -440 21 -491 69 -127 260 -251 516 -334 144 -48 366 -101 377 -91 3 4 6 43 6 88 0 81 0 81 -55 94 -118 29 -279 87 -371 134 -194 99 -265 213 -210 334 20 45 115 136 174 166 38 20 38 20 18 -18 -10 -21 -42 -58 -71 -82 -117 -99 -119 -179 -8 -281 68 -62 306 -164 476 -204 57 -13 62 -13 62 2 0 10 7 107 16 217 8 110 19 270 24 355 5 85 11 196 15 245 19 304 37 653 44 872 8 243 9 254 32 288 100 149 506 238 942 207 327 -24 542 -96 616 -207 24 -35 25 -43 32 -313 7 -250 33 -749 59 -1132 22 -332 30 -448 36 -496 5 -52 5 -52 67 -38 169 40 407 142 475 204 106 97 109 178 9 266 -24 22 -54 58 -66 82 -22 43 -22 43 8 28 49 -26 143 -118 162 -161 27 -59 24 -111 -10 -171 -68 -117 -267 -219 -598 -304 -41 -10 -41 -10 -36 -93 3 -45 7 -84 9 -86 7 -8 257 53 382 94 256 85 447 209 516 335 28 51 28 51 21 488 -6 327 -11 443 -21 463 -42 82 -174 188 -320 256 -74 34 -331 123 -355 123 -8 0 -10 -16 -6 -50 5 -38 3 -50 -7 -50 -9 0 -19 31 -31 96 -22 125 -19 439 5 454 13 8 15 -6 18 -95 1 -58 4 -105 7 -105 8 0 266 99 335 130 302 131 623 333 895 562 125 105 374 361 479 493 438 548 708 1205 781 1899 17 168 20 556 5 721 -34 360 -133 760 -267 1075 -192 451 -446 825 -792 1170 -604 601 -1363 960 -2213 1045 -135 13 -522 18 -643 8z m655 -203 c813 -92 1531 -444 2101 -1026 532 -545 860 -1228 954 -1985 8 -68 17 -189 20 -269 5 -144 5 -145 -11 -95 -21 65 -121 164 -228 224 -371 210 -1101 374 -1991 446 -393 32 -504 36 -1045 42 -897 9 -1398 -24 -2190 -142 -491 -73 -932 -202 -1187 -346 -106 -60 -206 -159 -227 -224 -16 -50 -16 -49 -11 95 12 340 82 698 199 1022 299 825 913 1516 1696 1908 432 217 804 317 1350 364 78 7 471 -3 570 -14z m791 -7290 c4 -14 19 -80 34 -148 30 -143 87 -319 144 -452 23 -51 40 -95 38 -97 -2 -1 -17 3 -35 9 -37 14 -52 46 -117 242 -42 127 -85 300 -103 419 -9 55 -8 58 11 55 12 -2 24 -14 28 -28z"/>
 <path d="M5310 1942 c0 -18 8 -21 58 -27 159 -17 348 -54 415 -80 14 -6 17 -2 17 23 0 29 -2 31 -67 46 -77 17 -243 41 -350 51 -69 7 -73 6 -73 -13z"/>
 </g>
<g id="layer105" fill="#7ac084" stroke="none">
 <path d="M4415 7289 c-201 -9 -598 -39 -604 -45 -2 -2 162 -4 365 -4 542 0 937 -15 1984 -75 724 -41 1210 -62 1200 -52 -7 7 -341 63 -520 86 -317 42 -689 73 -1070 91 -247 11 -1104 11 -1355 -1z"/>
 <path d="M2662 7072 c-68 -16 -117 -33 -122 -42 -4 -8 -16 -69 -26 -135 -34 -222 -22 -698 22 -862 6 -22 6 -22 -53 -7 -110 29 -321 94 -384 120 -110 44 -252 122 -306 167 -58 47 -110 112 -124 154 -13 41 -1 -228 17 -367 164 -1280 1012 -2352 2218 -2806 50 -18 91 -32 93 -31 5 6 -36 268 -57 354 -21 89 -67 248 -98 335 -18 53 -17 55 53 93 28 15 28 15 10 0 -11 -9 -27 -20 -35 -25 -13 -7 -8 -29 32 -147 68 -199 128 -475 128 -588 0 -28 5 -38 20 -42 18 -5 20 -14 20 -103 0 -54 -4 -100 -9 -102 -4 -1 -11 -49 -15 -105 -8 -118 -15 -111 91 -89 37 8 89 17 116 21 47 6 47 6 47 173 0 141 3 173 19 208 43 95 201 170 446 210 156 26 534 26 690 0 245 -40 403 -115 446 -210 16 -35 19 -67 19 -208 0 -167 0 -167 48 -173 26 -4 89 -16 140 -27 52 -11 95 -18 96 -16 1 2 0 54 -2 116 -3 91 -7 112 -19 112 -22 0 -15 183 8 202 11 9 19 46 28 127 18 175 64 382 118 538 14 40 23 79 19 88 -16 42 -312 203 -496 270 -124 45 -103 45 31 0 134 -45 301 -128 409 -202 95 -65 95 -65 67 -163 -51 -180 -69 -261 -91 -395 -14 -82 -27 -172 -29 -198 -5 -56 -17 -56 143 6 148 58 423 199 565 289 593 378 1056 922 1330 1564 126 294 219 649 255 968 14 132 22 357 11 323 -24 -71 -130 -173 -241 -231 -81 -42 -300 -130 -307 -123 -2 3 0 45 6 94 15 128 25 373 17 425 -7 45 -7 45 -89 61 -235 45 -478 67 -829 74 -164 3 -298 4 -298 1 0 -2 30 -54 66 -114 92 -153 159 -296 209 -448 50 -151 79 -295 61 -301 -18 -6 -201 -33 -371 -54 -832 -105 -1860 -125 -2775 -55 -307 23 -271 10 -347 126 -66 100 -66 100 -107 94 -22 -4 -94 -15 -158 -25 -118 -18 -118 -18 -177 83 -193 333 -323 634 -396 919 -16 59 -31 107 -34 106 -3 0 -57 -13 -119 -27z m3083 -2752 c13 -5 14 -9 5 -9 -8 0 -24 4 -35 9 -13 5 -14 9 -5 9 8 0 24 -4 35 -9z"/>
 <path d="M4135 2747 c-55 -11 -95 -22 -90 -24 6 -1 64 8 130 21 66 14 107 24 90 24 -16 0 -75 -9 -130 -21z"/>
 <path d="M6045 2744 c66 -13 126 -26 135 -29 10 -4 12 -3 5 3 -11 11 -206 52 -239 51 -12 0 33 -11 99 -25z"/>
 <path d="M4140 2090 c-105 -23 -250 -66 -261 -77 -4 -4 -15 -24 -23 -44 -15 -36 -15 -36 62 -9 42 15 134 42 205 60 125 33 127 33 127 61 0 33 3 33 -110 9z"/>
 <path d="M5960 2093 c0 -33 15 -41 150 -76 75 -20 167 -47 206 -61 39 -14 74 -26 77 -26 4 0 -2 19 -11 42 -17 39 -21 42 -98 65 -75 22 -292 73 -314 73 -6 0 -10 -8 -10 -17z"/>
 <path d="M4186 1805 c-136 -72 -184 -152 -142 -234 19 -35 75 -85 125 -111 38 -19 38 -19 44 28 4 36 1 54 -14 78 -26 43 -25 96 5 131 15 19 25 45 28 81 3 28 4 52 3 52 -1 0 -23 -11 -49 -25z"/>
 <path d="M5983 1780 c4 -34 15 -61 32 -81 31 -38 33 -92 5 -134 -20 -30 -24 -62 -14 -102 6 -22 6 -22 45 -3 51 27 106 76 126 113 19 38 13 96 -16 136 -22 31 -110 94 -156 111 -28 11 -28 11 -22 -40z"/>
 <path d="M3351 1627 c-1 -36 21 -107 34 -107 3 0 0 10 -6 22 -6 12 -15 44 -19 72 -7 47 -8 48 -9 13z"/>
 <path d="M6861 1627 c0 -21 -8 -54 -16 -75 -13 -32 -13 -35 0 -18 18 23 28 74 22 107 -3 16 -5 12 -6 -14z"/>
 <path d="M3408 1486 c22 -28 129 -116 141 -116 3 0 -7 11 -24 23 -16 12 -55 44 -85 72 -30 28 -44 37 -32 21z"/>
 <path d="M6764 1452 c-35 -32 -99 -77 -147 -102 -47 -25 -84 -46 -82 -48 7 -7 149 73 201 114 44 34 105 95 92 94 -2 -1 -31 -27 -64 -58z"/>
 <path d="M3560 1365 c0 -7 121 -67 126 -63 2 2 -26 18 -61 36 -36 17 -65 30 -65 27z"/>
 <path d="M3751 1276 c8 -8 149 -56 163 -55 6 0 -19 11 -56 24 -92 32 -114 38 -107 31z"/>
 <path d="M6375 1250 c-44 -16 -75 -29 -69 -29 12 -1 155 46 162 54 10 10 -13 3 -93 -25z"/>
 <path d="M3945 1210 c11 -5 27 -9 35 -9 9 0 8 4 -5 9 -11 5 -27 9 -35 9 -9 0 -8 -4 5 -9z"/>
 <path d="M6245 1210 c-13 -5 -14 -9 -5 -9 8 0 24 4 35 9 13 5 14 9 5 9 -8 0 -24 -4 -35 -9z"/>
 </g>
<g id="layer106" fill="#7dc286" stroke="none">
 <path d="M4475 7290 c-216 -10 -648 -41 -654 -46 -2 -2 184 -4 415 -4 547 0 880 -13 1884 -70 688 -40 1219 -64 1227 -56 9 8 -371 69 -627 100 -134 17 -510 48 -780 66 -210 14 -1228 21 -1465 10z"/>
 <path d="M1665 6440 c2 -25 7 -96 10 -159 16 -327 109 -729 244 -1059 121 -294 277 -560 487 -832 105 -136 399 -435 534 -542 276 -219 588 -402 890 -521 166 -65 160 -64 160 -28 0 102 -77 439 -144 632 -22 63 -22 69 -7 82 30 27 191 119 201 115 5 -1 -32 -28 -83 -59 -68 -41 -92 -60 -91 -75 1 -10 21 -73 44 -139 50 -144 94 -329 114 -484 8 -63 19 -118 23 -122 4 -4 62 -23 128 -42 119 -34 119 -34 136 17 38 111 189 188 454 232 156 26 534 26 690 0 268 -44 427 -127 456 -238 13 -46 13 -46 83 -26 74 20 199 59 204 64 2 1 10 56 18 122 18 156 63 369 108 507 20 61 36 113 36 118 0 15 -186 130 -295 182 -130 63 -248 106 -400 145 -60 16 -100 29 -88 29 35 1 245 -56 350 -95 166 -62 374 -174 444 -240 26 -25 26 -25 -13 -157 -61 -207 -125 -564 -105 -583 19 -20 433 169 627 286 257 154 440 299 670 530 383 384 655 820 827 1325 90 268 155 598 168 856 3 63 8 134 10 159 4 45 4 45 -11 11 -25 -60 -82 -118 -168 -175 -93 -62 -279 -146 -390 -176 -40 -10 -84 -24 -99 -29 -123 -47 -681 -165 -972 -206 -365 -52 -779 -87 -1255 -106 -312 -13 -1082 -7 -1360 11 -266 16 -551 40 -605 50 -27 5 -118 16 -201 26 -151 16 -151 16 -183 70 -18 30 -39 54 -48 54 -8 0 -86 -9 -172 -21 -86 -11 -174 -18 -196 -14 -159 24 -545 121 -709 177 -260 89 -459 221 -510 339 -15 34 -15 34 -11 -11z"/>
 <path d="M6058 3011 c-138 -36 -138 -36 -138 -84 0 -30 5 -49 13 -51 18 -5 272 -54 272 -52 1 0 -2 51 -5 112 -5 110 -5 110 -142 75z"/>
 <path d="M4046 2939 c-3 -56 -5 -104 -3 -106 4 -3 210 33 245 43 7 2 12 22 12 51 0 48 0 48 -112 77 -62 16 -118 30 -124 33 -7 3 -13 -30 -18 -98z"/>
 </g>
<g id="layer107" fill="#99ce9f" stroke="none">
 <path d="M4490 7290 c-91 -4 -255 -14 -365 -21 -159 -11 -182 -14 -115 -16 47 -1 298 -7 559 -13 491 -11 771 -23 1511 -66 698 -40 763 -43 1000 -48 217 -5 223 -5 155 10 -298 63 -962 130 -1525 154 -260 11 -963 11 -1220 0z"/>
 <path d="M1950 6188 c0 -44 33 -240 62 -368 204 -906 815 -1694 1641 -2116 106 -54 280 -134 292 -134 8 0 -74 292 -109 389 -13 36 -14 46 -4 53 186 125 466 249 699 308 129 33 113 21 -26 -18 -222 -64 -413 -147 -579 -252 -50 -32 -66 -47 -61 -59 66 -163 136 -436 161 -625 8 -61 20 -113 26 -118 16 -9 239 -71 242 -66 1 1 10 24 20 50 22 59 70 102 164 145 302 140 982 136 1277 -6 91 -45 138 -89 156 -151 7 -22 16 -40 20 -40 30 0 257 74 267 87 6 9 12 34 12 55 0 106 58 395 115 572 19 60 35 111 35 113 0 8 -178 119 -257 159 -165 84 -377 155 -581 195 -87 17 -90 18 -32 13 144 -12 400 -84 565 -159 97 -44 268 -145 313 -185 34 -29 34 -29 19 -72 -34 -94 -102 -367 -94 -375 7 -7 120 43 267 118 907 462 1547 1353 1694 2360 24 163 29 154 -56 115 -226 -103 -676 -217 -1168 -297 -245 -40 -639 -80 -1065 -110 -82 -5 -391 -13 -685 -16 -887 -9 -1395 24 -2145 142 -320 51 -419 70 -635 125 -185 46 -370 107 -474 154 -72 33 -76 34 -76 14z m2875 -1818 c-73 -14 -140 -22 -134 -16 7 7 105 24 144 24 25 0 23 -2 -10 -8z"/>
 <path d="M2700 4065 c30 -30 57 -55 59 -55 3 0 -19 25 -49 55 -30 30 -57 55 -59 55 -3 0 19 -25 49 -55z"/>
 <path d="M7510 4063 c-55 -58 -55 -58 3 -3 53 50 62 60 54 60 -1 0 -27 -26 -57 -57z"/>
 <path d="M6119 3025 c-41 -12 -103 -27 -137 -35 -62 -13 -62 -13 -62 -62 0 -30 5 -50 13 -52 16 -5 272 -53 272 -52 1 1 -2 51 -5 112 -5 111 -5 111 -81 89z"/>
 <path d="M4046 2939 c-3 -56 -5 -104 -3 -105 3 -3 210 33 245 42 7 2 12 21 12 51 0 48 0 48 -108 75 -59 14 -114 29 -123 33 -14 5 -17 -8 -23 -96z"/>
 </g>

</svg>